# xmcd
#
# Track frame offsets:
#	150
#	14653
#	31028
#	44891
#	65849
#	86830
#	101273
#	118537
#	136948
#	154286
#	169496
#	189220
#	203440
#	222647
#	239824
#	258494
#	279808
#	299459
#	316846
#	337714
#
# Disc length: 4684 seconds
#
# Revision: 1
# Processed by: cddbd v1.5.2PL0 Copyright (c) Steve Scherf et al.
# Submitted via: audiograbber 1.83.01
#
DISCID=2b124a14
DTITLE=Various Artist - Double Cream, Cream O Country 2 - Disc 2
DYEAR=2010
DGENRE=Country
TTITLE0=Kellie Pickler - Things That Never Cross A Man's Mind
TTITLE1=Jo Dee Messina - Lesson In Leavin'
TTITLE2=Emerson Drive - A Good Man
TTITLE3=Clint Black and Martina McBride - Still Holding On
TTITLE4=Alabama and NSYNC - (God Must Have Spent) A Little More Time On You
TTITLE5=Carolyn Dawn Johnson - One Day Closer To You
TTITLE6=Collin Raye - On The Verge
TTITLE7=Diamond Rio - How Your Love Makes Me Feel
TTITLE8=Trisha Yearwood - There Goes My Baby
TTITLE9=Montgomery Gentry - If You Ever Stop Loving Me
TTITLE10=The Mavericks - Dance The Night Away
TTITLE11=Phil Vasser - American Child
TTITLE12=Lee Ann Womack - A Little Past Little Rock
TTITLE13=Josh Turner - Would You Go With Me
TTITLE14=Gretchen Wilson - When I Think About Cheatin'
TTITLE15=Travis Tritt - Modern Day Bonnie and Clyde
TTITLE16=Patty Loveless - The Trouble With The Truth
TTITLE17=Chely Wright - It Was
TTITLE18=Vince Gill - If You Ever Have Forever In Mind
TTITLE19=Blue County - Good Little Girls
EXTD=
EXTT0=
EXTT1=
EXTT2=
EXTT3=
EXTT4=
EXTT5=
EXTT6=
EXTT7=
EXTT8=
EXTT9=
EXTT10=
EXTT11=
EXTT12=
EXTT13=
EXTT14=
EXTT15=
EXTT16=
EXTT17=
EXTT18=
EXTT19=
PLAYORDER=
